PathFileType	4	(X/Y/Z)	./resultDataOpenSim/trcMotMarkerGrf/sub09/qtm-14-07.trc
DataRate	CameraRate	NumFrames	NumMarkers	Units	OrigDataRate	OrigDataStartFrame	OrigNumFrames
250.000000	250.000000	7	24	m	250.000000	364	485
Frame#	Time	L.Toe.Tip			R.Toe.Tip			L.Ankle.Lat			R.Ankle.Lat			L.Ankle.Med			R.Ankle.Med			L.Heel			R.Heel			L.Knee.Lat			R.Knee.Lat			L.Knee.Med			R.Knee.Med			L.Thigh.Upper			R.Thigh.Upper			L.ASIS			R.ASIS			V.Sacral			L.Acromium			R.Acromium			C7			L.Elbow			R.Elbow			L.Wrist.Lat			R.Wrist.Lat
		X1	Y1	Z1	X2	Y2	Z2	X3	Y3	Z3	X4	Y4	Z4	X5	Y5	Z5	X6	Y6	Z6	X7	Y7	Z7	X8	Y8	Z8	X9	Y9	Z9	X10	Y10	Z10	X11	Y11	Z11	X12	Y12	Z12	X13	Y13	Z13	X14	Y14	Z14	X15	Y15	Z15	X16	Y16	Z16	X17	Y17	Z17	X18	Y18	Z18	X19	Y19	Z19	X20	Y20	Z20	X21	Y21	Z21	X22	Y22	Z22	X23	Y23	Z23	X24	Y24	Z24

364	1.452	1.0788543	0.11391274	-0.083978195	1.172778	0.04060337	0.055625686	0.98649498	0.23731441	-0.11238183	1.0250776	0.056574583	0.099705146	1.0094065	0.22609601	-0.015907894	1.0330739	0.098743207	0.0094780194	0.90301965	0.24325959	-0.071770428	0.95556186	0.038104415	0.053355334	1.260059	0.53762955	-0.093698564	1.1195633	0.50309068	0.17065568	1.2567809	0.52414253	0.031107849	1.0975711	0.49605553	0.047015154	1.049663	0.89178366	-0.12730195	1.0492545	0.90651156	0.24378893	1.1187798	0.9824232	-0.069693503	1.1298566	0.9920508	0.16729455	0.95429711	1.0392726	0.050324509	1.1058228	1.4390317	-0.12441516	1.0958088	1.4522126	0.20535549	1.0260329	1.4910836	0.039805821	0.99978512	1.0782937	-0.1650951	0.96804395	1.105563	0.30112165	1.1820296	0.88408145	-0.1851491	1.1605691	0.90508428	0.28780397
365	1.456	1.0968815	0.11293057	-0.084510709	1.1729569	0.040573402	0.055595193	1.0007989	0.23328877	-0.11283721	1.0251704	0.056719275	0.099585852	1.0238304	0.22251953	-0.016359186	1.0333275	0.099006712	0.0094545274	0.91703066	0.23678392	-0.072462788	0.95575268	0.038178493	0.053122876	1.2677912	0.53974258	-0.093585204	1.1209887	0.502885	0.17092935	1.2646576	0.52618167	0.031121191	1.099265	0.49592234	0.047164663	1.0551962	0.89273231	-0.12762757	1.0534123	0.90687477	0.24374062	1.1244628	0.98343421	-0.06962057	1.134865	0.99253328	0.16750399	0.95975164	1.0399579	0.050295137	1.1101843	1.4395983	-0.12455061	1.1005782	1.4531187	0.20532702	1.0307466	1.4917919	0.039814293	1.0032049	1.0792576	-0.16502438	0.97337609	1.1059662	0.30119188	1.1834921	0.88356226	-0.18622782	1.1676951	0.90720615	0.28649598
366	1.46	1.1147125	0.11186504	-0.084871477	1.1731325	0.040524035	0.055567948	1.0152177	0.22910865	-0.11324576	1.0252103	0.056877693	0.099454845	1.0383518	0.2188432	-0.016769658	1.0334856	0.099235381	0.0093287657	0.93124298	0.23024008	-0.073113893	0.95584664	0.038374198	0.052771128	1.2751784	0.54174769	-0.09353414	1.1226401	0.5027205	0.17114815	1.2724589	0.52808614	0.031106562	1.100902	0.49585871	0.047302621	1.0608599	0.89365636	-0.12793629	1.0568076	0.90721196	0.24382088	1.1301412	0.98438348	-0.069519383	1.1398576	0.99298303	0.1677419	0.9652961	1.0406315	0.050306243	1.1145349	1.4401152	-0.12468009	1.1053274	1.4539425	0.20530657	1.0354425	1.4924501	0.039806758	1.0066463	1.0801611	-0.16495324	0.97871889	1.1063086	0.30126741	1.1849687	0.88301769	-0.18729708	1.1747649	0.90926121	0.28521131
367	1.464	1.1323847	0.11075716	-0.08504687	1.1732635	0.040465852	0.055564054	1.0297559	0.22478735	-0.11361473	1.0251754	0.05705174	0.09931271	1.0529616	0.21508073	-0.017122656	1.0335742	0.09942513	0.0091057699	0.94563334	0.22364022	-0.073693664	0.95593321	0.038674599	0.052401046	1.2824127	0.54358862	-0.093525799	1.1243991	0.50258289	0.17133575	1.2801118	0.52982191	0.031052714	1.1025528	0.49584084	0.047436381	1.0668613	0.89456451	-0.12814221	1.0596314	0.90752	0.243997	1.1358205	0.98527123	-0.069386144	1.1448426	0.99340987	0.16799462	0.97077332	1.0412216	0.050231194	1.1188809	1.4405846	-0.12480531	1.1100661	1.4546976	0.20528972	1.0400891	1.4930549	0.039741761	1.0100996	1.0810133	-0.16487998	0.98407849	1.1065989	0.30135366	1.18646	0.88244717	-0.18835979	1.1817923	0.91125536	0.28395035
368	1.468	1.1500083	0.1096148	-0.08505098	1.1733326	0.040436243	0.05560191	1.0444178	0.22033769	-0.1139387	1.0251016	0.057235934	0.099146518	1.0676556	0.21124603	-0.017407904	1.0337191	0.099611515	0.0088489577	0.96018802	0.21697568	-0.074198846	0.95604545	0.039018052	0.052020372	1.2897022	0.54522303	-0.093538384	1.126199	0.50246709	0.17149076	1.2875794	0.53137257	0.030954173	1.1042377	0.49584738	0.047532673	1.0731129	0.89543174	-0.12827693	1.0627249	0.90779599	0.24412747	1.1415207	0.98609083	-0.069226232	1.1498221	0.99380996	0.16825355	0.97612721	1.0416934	0.050035002	1.1232312	1.4410049	-0.12492487	1.1147951	1.455392	0.20527324	1.0446548	1.4936159	0.039579514	1.0135688	1.0818114	-0.16481908	0.98945479	1.1068377	0.30144703	1.1879662	0.88185166	-0.18941958	1.1887864	0.91319611	0.2827114
369	1.472	1.1676765	0.10843124	-0.084906109	1.1733707	0.040470082	0.055683519	1.0592037	0.21577294	-0.11420706	1.0250921	0.057414984	0.098922582	1.0824394	0.20735296	-0.017622639	1.0340048	0.099825959	0.008599399	0.97490808	0.2102261	-0.074647631	0.95615032	0.039367851	0.051552533	1.2970852	0.54665979	-0.093566288	1.1280281	0.50237147	0.17160764	1.2948795	0.53275049	0.030815156	1.105876	0.49588144	0.047540991	1.079379	0.89623895	-0.12842328	1.0668073	0.90804629	0.24407831	1.1472527	0.98683796	-0.069042567	1.154792	0.99417647	0.16851898	0.98137359	1.0420499	0.049748585	1.1275916	1.4413738	-0.12503677	1.1195192	1.4560297	0.2052571	1.0491554	1.4941432	0.039342242	1.017063	1.0825345	-0.16480426	0.99484097	1.1070173	0.30153515	1.189492	0.8812311	-0.19047661	1.1957491	0.91508495	0.28148934
370	1.476	1.1854055	0.107217	-0.084628085	1.173452	0.040570952	0.05578562	1.0740999	0.21111338	-0.11440596	1.0252492	0.057571028	0.098597934	1.0973301	0.20342046	-0.017773016	1.0344088	0.10006839	0.0083509118	0.98980103	0.2033754	-0.075056043	0.95619263	0.039738884	0.050908535	1.3044366	0.54792868	-0.09361767	1.1298838	0.50229293	0.17169317	1.3020584	0.53398378	0.030646843	1.10736	0.49596646	0.047415157	1.0855371	0.89698827	-0.12861927	1.0717715	0.90827778	0.24383848	1.1530126	0.98751323	-0.068838017	1.1597453	0.99450992	0.1687989	0.98651696	1.0423134	0.049407147	1.1319631	1.4416931	-0.12514321	1.1242415	1.4566118	0.20524151	1.0536639	1.4946276	0.039118866	1.0205878	1.0831696	-0.16485326	1.0002255	1.1071296	0.301605	1.1910399	0.88058679	-0.19152868	1.2026793	0.91691542	0.28027918
